G04*
G04 #@! TF.GenerationSoftware,Altium Limited,Altium Designer,22.8.2 (66)*
G04*
G04 Layer_Color=32768*
%FSLAX25Y25*%
%MOIN*%
G70*
G04*
G04 #@! TF.SameCoordinates,91317C4C-2BB6-42C2-B401-94DFDD073F52*
G04*
G04*
G04 #@! TF.FilePolarity,Positive*
G04*
G01*
G75*
%ADD53C,0.00394*%
%ADD54C,0.00197*%
D53*
X126532Y116000D02*
X130468D01*
X128500Y114032D02*
Y117968D01*
X132531Y191000D02*
X136469D01*
X134500Y189032D02*
Y192968D01*
X258032Y136000D02*
X261968D01*
X260000Y134031D02*
Y137969D01*
X52031Y191500D02*
X55968D01*
X54000Y189532D02*
Y193468D01*
D54*
X118953Y96832D02*
X119079Y95774D01*
X119523Y94806D01*
X120240Y94019D01*
X121163Y93488D01*
X122204Y93264D01*
X134799D02*
X135854Y93493D01*
X136786Y94037D01*
X137505Y94843D01*
X137940Y95831D01*
X138047Y96905D01*
Y135021D02*
X137940Y136095D01*
X137505Y137083D01*
X136786Y137889D01*
X135854Y138433D01*
X134799Y138663D01*
X122204D02*
X121163Y138438D01*
X120240Y137908D01*
X119523Y137120D01*
X119079Y136152D01*
X118953Y135094D01*
X138047Y96905D02*
Y135094D01*
X118953Y96905D02*
Y135094D01*
X122204Y93264D02*
X134799D01*
X122204Y138663D02*
X134799D01*
X125484Y169937D02*
Y212063D01*
X145957Y169937D02*
Y212063D01*
X125484D02*
X145957D01*
X125484Y169937D02*
X145957D01*
X69157Y169650D02*
Y209610D01*
X11480Y169650D02*
X69157D01*
X11480Y209610D02*
X69157D01*
X11480Y169650D02*
Y209610D01*
M02*
