M48
;Layer_Color=9474304
;FILE_FORMAT=2:4
INCH,TZ
;TYPE=PLATED
T1F00S00C0.0197
T2F00S00C0.0276
T3F00S00C0.0335
T4F00S00C0.0354
T5F00S00C0.0394
T7F00S00C0.0433
T8F00S00C0.0500
%
T01
X18150Y13550
X35300Y13100
T02
X5400Y10100
Y13100
X9050
Y10100
X12850Y10639
Y12561
X16400Y13100
Y10100
T03
X14600Y4250
X2450Y9150
Y14150
X14600Y9250
T04
X10150Y19150
Y20150
X20850Y19100
Y18100
Y17100
Y16100
Y15100
Y14100
Y13100
Y12100
X24500
Y13100
Y14100
Y15100
Y16100
Y17100
Y18100
Y19100
Y20100
X27500
Y19100
Y18100
Y17100
Y16100
Y15100
Y14100
Y13100
Y12100
Y11100
Y10100
Y9100
Y8100
Y7100
X24500
Y8100
Y9100
Y10100
Y11100
X32000
Y10100
Y9100
Y8100
Y7100
Y6100
X36600Y7100
Y8100
Y9100
Y13100
Y14100
Y15100
Y16100
Y17100
Y18100
Y19100
Y20100
X32000
Y19100
Y18100
Y17100
Y16100
Y15100
X37600
Y16100
Y17100
Y18100
Y19100
Y20100
Y14100
Y13100
Y9100
Y8100
Y7100
T05
X13450Y18100
Y19100
Y20100
T07
X17550Y7100
X19550
T08
X7750Y5950
Y6950
M30
