G04*
G04 #@! TF.GenerationSoftware,Altium Limited,Altium Designer,22.8.2 (66)*
G04*
G04 Layer_Physical_Order=1*
G04 Layer_Color=255*
%FSLAX25Y25*%
%MOIN*%
G70*
G04*
G04 #@! TF.SameCoordinates,91317C4C-2BB6-42C2-B401-94DFDD073F52*
G04*
G04*
G04 #@! TF.FilePolarity,Positive*
G04*
G01*
G75*
%ADD14C,0.01000*%
%ADD37C,0.01500*%
%ADD38C,0.07000*%
%ADD39C,0.05512*%
%ADD40R,0.07284X0.07284*%
%ADD41C,0.07284*%
%ADD42C,0.04724*%
%ADD43R,0.04724X0.04724*%
%ADD44R,0.06299X0.06299*%
%ADD45C,0.06299*%
%ADD46R,0.05906X0.05906*%
%ADD47C,0.05906*%
%ADD48R,0.05906X0.05906*%
%ADD49R,0.05906X0.15748*%
%ADD50R,0.05906X0.13780*%
%ADD51R,0.13780X0.05906*%
%ADD52C,0.03937*%
G36*
X131374Y200500D02*
X130362Y201000D01*
Y202000D01*
X131374Y202500D01*
Y200500D01*
D02*
G37*
G36*
X106182Y202000D02*
Y201000D01*
X103609Y199433D01*
Y203567D01*
X106182Y202000D01*
D02*
G37*
G36*
X317891Y198933D02*
X315318Y200500D01*
Y201500D01*
X317891Y203067D01*
Y198933D01*
D02*
G37*
G36*
X279682Y201500D02*
Y200500D01*
X277109Y198933D01*
Y203067D01*
X279682Y201500D01*
D02*
G37*
G36*
X376750Y196372D02*
X375250D01*
X373933Y198891D01*
X378067D01*
X376750Y196372D01*
D02*
G37*
G36*
X366750D02*
X365250D01*
X363933Y198891D01*
X368067D01*
X366750Y196372D01*
D02*
G37*
G36*
X378067Y193109D02*
X373933D01*
X375250Y195628D01*
X376750D01*
X378067Y193109D01*
D02*
G37*
G36*
X368067D02*
X363933D01*
X365250Y195628D01*
X366750D01*
X368067Y193109D01*
D02*
G37*
G36*
X98571Y190500D02*
X97559Y191000D01*
Y192000D01*
X98571Y192500D01*
Y190500D01*
D02*
G37*
G36*
X69752Y192000D02*
Y191000D01*
X68740Y190500D01*
Y192500D01*
X69752Y192000D01*
D02*
G37*
G36*
X212441Y191500D02*
Y190500D01*
X211429Y190000D01*
Y192000D01*
X212441Y191500D01*
D02*
G37*
G36*
X317891Y188933D02*
X315318Y190500D01*
Y191500D01*
X317891Y193067D01*
Y188933D01*
D02*
G37*
G36*
X279682Y191500D02*
Y190500D01*
X277109Y188933D01*
Y193067D01*
X279682Y191500D01*
D02*
G37*
G36*
X242891Y188933D02*
X240318Y190500D01*
Y191500D01*
X242891Y193067D01*
Y188933D01*
D02*
G37*
G36*
X134468Y187850D02*
X131318Y187111D01*
X130611Y187818D01*
X131351Y190969D01*
X134468Y187850D01*
D02*
G37*
G36*
X376750Y186372D02*
X375250D01*
X373933Y188891D01*
X378067D01*
X376750Y186372D01*
D02*
G37*
G36*
X366750D02*
X365250D01*
X363933Y188891D01*
X368067D01*
X366750Y186372D01*
D02*
G37*
G36*
X43788Y183915D02*
X42727Y183562D01*
X40960Y184622D01*
X43788D01*
Y183915D01*
D02*
G37*
G36*
X378067Y183109D02*
X373933D01*
X375250Y185628D01*
X376750D01*
X378067Y183109D01*
D02*
G37*
G36*
X368067D02*
X363933D01*
X365250Y185628D01*
X366750D01*
X368067Y183109D01*
D02*
G37*
G36*
X317891Y178933D02*
X315318Y180500D01*
Y181500D01*
X317891Y183067D01*
Y178933D01*
D02*
G37*
G36*
X279682Y181500D02*
Y180500D01*
X277109Y178933D01*
Y183067D01*
X279682Y181500D01*
D02*
G37*
G36*
X242891Y178933D02*
X240318Y180500D01*
Y181500D01*
X242891Y183067D01*
Y178933D01*
D02*
G37*
G36*
X213182Y181500D02*
Y180500D01*
X210609Y178933D01*
Y183067D01*
X213182Y181500D01*
D02*
G37*
G36*
X376750Y176372D02*
X375250D01*
X373933Y178891D01*
X378067D01*
X376750Y176372D01*
D02*
G37*
G36*
X366750D02*
X365250D01*
X363933Y178891D01*
X368067D01*
X366750Y176372D01*
D02*
G37*
G36*
X135250Y176051D02*
X133750D01*
X132295Y178751D01*
X136705D01*
X135250Y176051D01*
D02*
G37*
G36*
X52473Y175925D02*
X49645D01*
Y176644D01*
X51059D01*
X52473Y175925D01*
D02*
G37*
G36*
X378067Y173109D02*
X373933D01*
X375250Y175628D01*
X376750D01*
X378067Y173109D01*
D02*
G37*
G36*
X368067D02*
X363933D01*
X365250Y175628D01*
X366750D01*
X368067Y173109D01*
D02*
G37*
G36*
X61878Y173496D02*
Y172496D01*
X60866Y171996D01*
Y173996D01*
X61878Y173496D01*
D02*
G37*
G36*
X54500Y169055D02*
X53500D01*
X53000Y170055D01*
X55000D01*
X54500Y169055D01*
D02*
G37*
G36*
X317891Y168933D02*
X315318Y170500D01*
Y171500D01*
X317891Y173067D01*
Y168933D01*
D02*
G37*
G36*
X279682Y171500D02*
Y170500D01*
X277109Y168933D01*
Y173067D01*
X279682Y171500D01*
D02*
G37*
G36*
X242891Y168933D02*
X240318Y170500D01*
Y171500D01*
X242891Y173067D01*
Y168933D01*
D02*
G37*
G36*
X213182Y171500D02*
Y170500D01*
X210609Y168933D01*
Y173067D01*
X213182Y171500D01*
D02*
G37*
G36*
X376750Y166372D02*
X375250D01*
X373933Y168891D01*
X378067D01*
X376750Y166372D01*
D02*
G37*
G36*
X366750D02*
X365250D01*
X363933Y168891D01*
X368067D01*
X366750Y166372D01*
D02*
G37*
G36*
X378067Y163109D02*
X373933D01*
X375250Y165628D01*
X376750D01*
X378067Y163109D01*
D02*
G37*
G36*
X368067D02*
X363933D01*
X365250Y165628D01*
X366750D01*
X368067Y163109D01*
D02*
G37*
G36*
X317891Y158933D02*
X315318Y160500D01*
Y161500D01*
X317891Y163067D01*
Y158933D01*
D02*
G37*
G36*
X279682Y161500D02*
Y160500D01*
X277109Y158933D01*
Y163067D01*
X279682Y161500D01*
D02*
G37*
G36*
X242891Y158933D02*
X240318Y160500D01*
Y161500D01*
X242891Y163067D01*
Y158933D01*
D02*
G37*
G36*
X213182Y161500D02*
Y160500D01*
X210609Y158933D01*
Y163067D01*
X213182Y161500D01*
D02*
G37*
G36*
X376750Y156372D02*
X375250D01*
X373933Y158891D01*
X378067D01*
X376750Y156372D01*
D02*
G37*
G36*
X366750D02*
X365250D01*
X363933Y158891D01*
X368067D01*
X366750Y156372D01*
D02*
G37*
G36*
X378067Y153109D02*
X373933D01*
X375250Y155628D01*
X376750D01*
X378067Y153109D01*
D02*
G37*
G36*
X368067D02*
X363933D01*
X365250Y155628D01*
X366750D01*
X368067Y153109D01*
D02*
G37*
G36*
X317071Y150000D02*
X316059Y150500D01*
Y151500D01*
X317071Y152000D01*
Y150000D01*
D02*
G37*
G36*
X279682Y151500D02*
Y150500D01*
X277109Y148933D01*
Y153067D01*
X279682Y151500D01*
D02*
G37*
G36*
X242891Y148933D02*
X240318Y150500D01*
Y151500D01*
X242891Y153067D01*
Y148933D01*
D02*
G37*
G36*
X213182Y151500D02*
Y150500D01*
X210609Y148933D01*
Y153067D01*
X213182Y151500D01*
D02*
G37*
G36*
X376750Y146372D02*
X375250D01*
X373933Y148891D01*
X378067D01*
X376750Y146372D01*
D02*
G37*
G36*
X366750D02*
X365250D01*
X363933Y148891D01*
X368067D01*
X366750Y146372D01*
D02*
G37*
G36*
X378067Y143109D02*
X373933D01*
X375250Y145628D01*
X376750D01*
X378067Y143109D01*
D02*
G37*
G36*
X368067D02*
X363933D01*
X365250Y145628D01*
X366750D01*
X368067Y143109D01*
D02*
G37*
G36*
X363891Y138933D02*
X361372Y140250D01*
Y141750D01*
X363891Y143067D01*
Y138933D01*
D02*
G37*
G36*
X279628Y141750D02*
Y140250D01*
X277109Y138933D01*
Y143067D01*
X279628Y141750D01*
D02*
G37*
G36*
X242891Y138933D02*
X240372Y140250D01*
Y141750D01*
X242891Y143067D01*
Y138933D01*
D02*
G37*
G36*
X28075Y138986D02*
X27014Y137925D01*
X24528Y138744D01*
X27256Y141472D01*
X28075Y138986D01*
D02*
G37*
G36*
X274617Y138072D02*
X271765Y137558D01*
X271145Y138352D01*
X272065Y141324D01*
X274617Y138072D01*
D02*
G37*
G36*
X376750Y136372D02*
X375250D01*
X373933Y138891D01*
X378067D01*
X376750Y136372D01*
D02*
G37*
G36*
X366750D02*
X365250D01*
X363933Y138891D01*
X368067D01*
X366750Y136372D01*
D02*
G37*
G36*
X184500Y136253D02*
X184502Y134753D01*
X182908Y134124D01*
X182904Y136880D01*
X184500Y136253D01*
D02*
G37*
G36*
X377500Y133929D02*
X374500D01*
X375250Y135441D01*
X376750D01*
X377500Y133929D01*
D02*
G37*
G36*
X368067Y133109D02*
X363933D01*
X365250Y135628D01*
X366750D01*
X368067Y133109D01*
D02*
G37*
G36*
X244970Y133953D02*
X242047Y131029D01*
X241197Y133742D01*
X242258Y134802D01*
X244970Y133953D01*
D02*
G37*
G36*
X167116Y133056D02*
X166362Y131024D01*
X164024Y133362D01*
X166056Y134116D01*
X167116Y133056D01*
D02*
G37*
G36*
X163976Y133362D02*
X161638Y131024D01*
X160884Y133056D01*
X161944Y134116D01*
X163976Y133362D01*
D02*
G37*
G36*
X351594Y129622D02*
X349999Y130250D01*
Y131750D01*
X351594Y132378D01*
Y129622D01*
D02*
G37*
G36*
X57726Y131500D02*
Y130500D01*
X55687Y129347D01*
Y132653D01*
X57726Y131500D01*
D02*
G37*
G36*
X249550Y132000D02*
X249724Y131000D01*
X247428Y129320D01*
X246728Y133394D01*
X249550Y132000D01*
D02*
G37*
G36*
X275500Y128941D02*
X274500D01*
X274469Y130470D01*
X275531D01*
X275500Y128941D01*
D02*
G37*
G36*
X279628Y131750D02*
Y130250D01*
X277109Y128933D01*
Y133067D01*
X279628Y131750D01*
D02*
G37*
G36*
X93488Y128719D02*
X92781Y128012D01*
X90524Y128638D01*
X92862Y130976D01*
X93488Y128719D01*
D02*
G37*
G36*
X50018Y129664D02*
X50689Y128043D01*
X51310Y127398D01*
X50602Y126690D01*
X49499Y127750D01*
X49831Y128082D01*
X49147Y128146D01*
X49499Y127750D01*
X47500Y129250D01*
X48994Y130246D01*
X49000Y130559D01*
X50000D01*
X50018Y129664D01*
D02*
G37*
G36*
X376750Y126559D02*
X375250D01*
X374500Y128059D01*
X377500D01*
X376750Y126559D01*
D02*
G37*
G36*
X127564Y127945D02*
X126162Y126542D01*
X125443Y127956D01*
X126150Y128664D01*
X127564Y127945D01*
D02*
G37*
G36*
X366750Y126372D02*
X365250D01*
X363933Y128891D01*
X368067D01*
X366750Y126372D01*
D02*
G37*
G36*
X275500Y126318D02*
X274500D01*
X272933Y128891D01*
X277067D01*
X275500Y126318D01*
D02*
G37*
G36*
X131850Y126106D02*
Y125106D01*
X130838Y124606D01*
Y126606D01*
X131850Y126106D01*
D02*
G37*
G36*
X277067Y123109D02*
X272933D01*
X274500Y125682D01*
X275500D01*
X277067Y123109D01*
D02*
G37*
G36*
X244970Y123953D02*
X242047Y121029D01*
X241336Y123957D01*
X242043Y124664D01*
X244970Y123953D01*
D02*
G37*
G36*
X317891Y108933D02*
X315318Y110500D01*
Y111500D01*
X317891Y113067D01*
Y108933D01*
D02*
G37*
G36*
X279682Y111500D02*
Y110500D01*
X277109Y108933D01*
Y113067D01*
X279682Y111500D01*
D02*
G37*
G36*
X244970Y108047D02*
X242043Y107336D01*
X241336Y108043D01*
X242047Y110970D01*
X244970Y108047D01*
D02*
G37*
G36*
X132226Y106894D02*
Y105894D01*
X130187Y104740D01*
Y108047D01*
X132226Y106894D01*
D02*
G37*
G36*
X126813Y104740D02*
X124774Y105894D01*
Y106894D01*
X126813Y108047D01*
Y104740D01*
D02*
G37*
G36*
X55654Y102687D02*
X52346D01*
X53500Y104726D01*
X54500D01*
X55654Y102687D01*
D02*
G37*
G36*
X162313Y101507D02*
X163470Y101531D01*
Y100469D01*
X162313Y100493D01*
Y99347D01*
X160274Y100500D01*
Y101500D01*
X162313Y102654D01*
Y101507D01*
D02*
G37*
G36*
X94226Y101500D02*
Y100500D01*
X92187Y99347D01*
Y102654D01*
X94226Y101500D01*
D02*
G37*
G36*
X88813Y99347D02*
X86774Y100500D01*
Y101500D01*
X88813Y102654D01*
Y99347D01*
D02*
G37*
G36*
X57726Y101500D02*
Y100500D01*
X55687Y99347D01*
Y102654D01*
X57726Y101500D01*
D02*
G37*
G36*
X317891Y98933D02*
X315318Y100500D01*
Y101500D01*
X317891Y103067D01*
Y98933D01*
D02*
G37*
G36*
X279682Y101500D02*
Y100500D01*
X277109Y98933D01*
Y103067D01*
X279682Y101500D01*
D02*
G37*
G36*
X376000Y99155D02*
X374898Y98096D01*
X374190Y98803D01*
X375250Y99906D01*
X376000Y99155D01*
D02*
G37*
G36*
X164750Y97343D02*
X163250D01*
X162346Y99313D01*
X165654D01*
X164750Y97343D01*
D02*
G37*
G36*
X368067Y93109D02*
X363933D01*
X365250Y95628D01*
X366750D01*
X368067Y93109D01*
D02*
G37*
G36*
X317891Y88933D02*
X315318Y90500D01*
Y91500D01*
X317891Y93067D01*
Y88933D01*
D02*
G37*
G36*
X279682Y91500D02*
Y90500D01*
X277109Y88933D01*
Y93067D01*
X279682Y91500D01*
D02*
G37*
G36*
X145972Y89744D02*
X143486Y88925D01*
X142425Y89986D01*
X143244Y92472D01*
X145972Y89744D01*
D02*
G37*
G36*
X28075Y88986D02*
X27014Y87925D01*
X24528Y88744D01*
X27256Y91472D01*
X28075Y88986D01*
D02*
G37*
G36*
X323664Y88043D02*
X322957Y87336D01*
X320029Y88047D01*
X322953Y90970D01*
X323664Y88043D01*
D02*
G37*
G36*
X363891Y78933D02*
X361318Y80500D01*
Y81500D01*
X363891Y83067D01*
Y78933D01*
D02*
G37*
G36*
X317891D02*
X315318Y80500D01*
Y81500D01*
X317891Y83067D01*
Y78933D01*
D02*
G37*
G36*
X279682Y81500D02*
Y80500D01*
X277109Y78933D01*
Y83067D01*
X279682Y81500D01*
D02*
G37*
G36*
X175464Y74642D02*
X171858Y71036D01*
X170905Y74535D01*
X171965Y75595D01*
X175464Y74642D01*
D02*
G37*
G36*
X369664Y73957D02*
X368953Y71030D01*
X366030Y73953D01*
X368957Y74664D01*
X369664Y73957D01*
D02*
G37*
G36*
X317891Y68933D02*
X315318Y70500D01*
Y71500D01*
X317891Y73067D01*
Y68933D01*
D02*
G37*
G36*
X279682Y71500D02*
Y70500D01*
X277109Y68933D01*
Y73067D01*
X279682Y71500D01*
D02*
G37*
G36*
X248664Y68043D02*
X247957Y67336D01*
X245029Y68047D01*
X247953Y70970D01*
X248664Y68043D01*
D02*
G37*
G36*
X83019Y70250D02*
Y68750D01*
X80000Y67050D01*
Y71950D01*
X83019Y70250D01*
D02*
G37*
G36*
X193992Y67370D02*
X191870Y66310D01*
X190810Y67370D01*
X191870Y69492D01*
X193992Y67370D01*
D02*
G37*
G36*
X317071Y60000D02*
X316059Y60500D01*
Y61500D01*
X317071Y62000D01*
Y60000D01*
D02*
G37*
G36*
X75001Y57050D02*
X71981Y58750D01*
Y60250D01*
X75001Y61950D01*
Y57050D01*
D02*
G37*
G36*
X150305Y43250D02*
Y41750D01*
X147968Y40571D01*
Y44429D01*
X150305Y43250D01*
D02*
G37*
D14*
X54000Y101000D02*
Y124000D01*
X49500Y128500D02*
X54000Y124000D01*
X49500Y128500D02*
Y133000D01*
X54000Y137500D01*
Y172996D01*
X128500Y125606D02*
X240394D01*
X245000Y121000D01*
X118106Y136000D02*
X128500Y125606D01*
X84000Y131000D02*
X89000Y136000D01*
X118106D01*
X54000Y131000D02*
X84000D01*
X128500Y106394D02*
X240394D01*
X245000Y131000D02*
X245500Y131500D01*
X265000D02*
X274500Y141000D01*
X245500Y131500D02*
X265000D01*
X274500Y141000D02*
X275000D01*
Y71000D02*
X320000D01*
Y91000D02*
X330000Y81000D01*
X366000D01*
Y71000D02*
X371547Y76547D01*
Y95453D01*
X376000Y99906D01*
X240394Y106394D02*
X245000Y111000D01*
X208500Y171000D02*
X245000D01*
X208500Y161000D02*
X245000D01*
X208500Y151000D02*
X245000D01*
X275000Y101000D02*
X320000D01*
X255000Y61000D02*
X320000D01*
X245000Y71000D02*
X255000Y61000D01*
X275000Y201000D02*
X320000D01*
X275000Y191000D02*
X320000D01*
X275000Y181000D02*
X320000D01*
X275000Y171000D02*
X320000D01*
X275000Y161000D02*
X320000D01*
X275000Y151000D02*
X320000D01*
X208500Y191000D02*
X245000D01*
X208500Y181000D02*
X245000D01*
X275000Y81000D02*
X320000D01*
X275000Y91000D02*
X320000D01*
X275000Y111000D02*
X320000D01*
X275000Y121000D02*
Y131000D01*
X115106Y106394D02*
X128500D01*
X90500Y131000D02*
X115106Y106394D01*
X90500Y101000D02*
X164000D01*
X54000D02*
X90500D01*
X134000Y201500D02*
X134500Y201000D01*
X101500Y201500D02*
X134000D01*
X116496Y172996D02*
X134500Y191000D01*
X54000Y172996D02*
X116496D01*
X65811Y191500D02*
X101500D01*
X42189Y184807D02*
X54000Y172996D01*
X42189Y184807D02*
Y191500D01*
D37*
X37500Y128500D02*
X49500D01*
X24500Y141500D02*
X37500Y128500D01*
X123000Y69500D02*
X146000Y92500D01*
X77500Y69500D02*
X123000D01*
X56500Y59500D02*
X77500D01*
X24500Y91500D02*
X56500Y59500D01*
X146000Y42500D02*
X167000D01*
X195500Y71000D01*
X164000Y131000D02*
X179000Y146000D01*
X212000D02*
X217000Y141000D01*
X179000Y146000D02*
X212000D01*
X217000Y141000D02*
X245000D01*
X134500Y160500D02*
X164000Y131000D01*
X134500Y160500D02*
Y181000D01*
X240497Y135503D02*
X245000Y131000D01*
X181503Y135503D02*
X240497D01*
X181500Y135500D02*
X181503Y135503D01*
X275000Y131000D02*
X353000D01*
X366000Y91000D02*
Y131000D01*
X376000Y99906D02*
Y131000D01*
Y141000D01*
X366000Y191000D02*
Y201000D01*
Y181000D02*
Y191000D01*
Y171000D02*
Y181000D01*
Y161000D02*
Y171000D01*
Y151000D02*
Y161000D01*
Y141000D02*
Y151000D01*
Y131000D02*
Y141000D01*
X376000Y161000D02*
Y171000D01*
Y151000D02*
Y161000D01*
Y141000D02*
Y151000D01*
Y171000D02*
Y181000D01*
Y191000D01*
Y201000D01*
X275000Y141000D02*
X366000D01*
X164000Y82500D02*
X175500Y71000D01*
X164000Y82500D02*
Y101000D01*
D38*
X77500Y59500D02*
D03*
Y69500D02*
D03*
D39*
X146000Y92500D02*
D03*
Y42500D02*
D03*
X24500Y91500D02*
D03*
Y141500D02*
D03*
D40*
X195500Y71000D02*
D03*
D41*
X175500D02*
D03*
D42*
X128500Y106394D02*
D03*
X54000Y101000D02*
D03*
Y131000D02*
D03*
X90500D02*
D03*
Y101000D02*
D03*
X164000D02*
D03*
Y131000D02*
D03*
D43*
X128500Y125606D02*
D03*
D44*
X134500Y201000D02*
D03*
D45*
Y191000D02*
D03*
Y181000D02*
D03*
D46*
X245000Y201000D02*
D03*
D47*
Y191000D02*
D03*
Y181000D02*
D03*
Y171000D02*
D03*
Y161000D02*
D03*
Y151000D02*
D03*
Y141000D02*
D03*
Y131000D02*
D03*
Y121000D02*
D03*
Y111000D02*
D03*
Y101000D02*
D03*
Y91000D02*
D03*
Y81000D02*
D03*
Y71000D02*
D03*
X275000Y201000D02*
D03*
Y191000D02*
D03*
Y181000D02*
D03*
Y171000D02*
D03*
Y161000D02*
D03*
Y151000D02*
D03*
Y141000D02*
D03*
Y131000D02*
D03*
Y121000D02*
D03*
Y111000D02*
D03*
Y101000D02*
D03*
Y91000D02*
D03*
Y81000D02*
D03*
Y71000D02*
D03*
X208500Y181000D02*
D03*
Y171000D02*
D03*
Y161000D02*
D03*
Y151000D02*
D03*
Y141000D02*
D03*
Y131000D02*
D03*
Y121000D02*
D03*
X366000Y201000D02*
D03*
X376000D02*
D03*
X366000Y191000D02*
D03*
X376000D02*
D03*
X366000Y181000D02*
D03*
X376000D02*
D03*
X366000Y171000D02*
D03*
X376000D02*
D03*
X366000Y161000D02*
D03*
X376000D02*
D03*
X366000Y151000D02*
D03*
X376000D02*
D03*
X366000Y141000D02*
D03*
X376000D02*
D03*
X366000Y131000D02*
D03*
X320000Y111000D02*
D03*
Y101000D02*
D03*
Y91000D02*
D03*
Y81000D02*
D03*
Y71000D02*
D03*
Y201000D02*
D03*
Y191000D02*
D03*
Y181000D02*
D03*
Y171000D02*
D03*
Y161000D02*
D03*
X366000Y91000D02*
D03*
X376000D02*
D03*
X366000Y81000D02*
D03*
X376000D02*
D03*
X366000Y71000D02*
D03*
X101500Y201500D02*
D03*
D48*
X208500Y191000D02*
D03*
X376000Y131000D02*
D03*
X320000Y61000D02*
D03*
Y151000D02*
D03*
X376000Y71000D02*
D03*
X101500Y191500D02*
D03*
D49*
X65811D02*
D03*
D50*
X42189D02*
D03*
D51*
X54000Y172996D02*
D03*
D52*
X181500Y135500D02*
D03*
X353000Y131000D02*
D03*
M02*
