G04*
G04 #@! TF.GenerationSoftware,Altium Limited,Altium Designer,22.8.2 (66)*
G04*
G04 Layer_Color=255*
%FSLAX25Y25*%
%MOIN*%
G70*
G04*
G04 #@! TF.SameCoordinates,91317C4C-2BB6-42C2-B401-94DFDD073F52*
G04*
G04*
G04 #@! TF.FilePolarity,Positive*
G04*
G01*
G75*
%ADD38C,0.07000*%
%ADD39C,0.05512*%
%ADD40R,0.07284X0.07284*%
%ADD41C,0.07284*%
%ADD42C,0.04724*%
%ADD43R,0.04724X0.04724*%
%ADD44R,0.06299X0.06299*%
%ADD45C,0.06299*%
%ADD46R,0.05906X0.05906*%
%ADD47C,0.05906*%
%ADD48R,0.05906X0.05906*%
%ADD49R,0.05906X0.15748*%
%ADD50R,0.05906X0.13780*%
%ADD51R,0.13780X0.05906*%
D38*
X77500Y59500D02*
D03*
Y69500D02*
D03*
D39*
X146000Y92500D02*
D03*
Y42500D02*
D03*
X24500Y91500D02*
D03*
Y141500D02*
D03*
D40*
X195500Y71000D02*
D03*
D41*
X175500D02*
D03*
D42*
X128500Y106394D02*
D03*
X54000Y101000D02*
D03*
Y131000D02*
D03*
X90500D02*
D03*
Y101000D02*
D03*
X164000D02*
D03*
Y131000D02*
D03*
D43*
X128500Y125606D02*
D03*
D44*
X134500Y201000D02*
D03*
D45*
Y191000D02*
D03*
Y181000D02*
D03*
D46*
X245000Y201000D02*
D03*
D47*
Y191000D02*
D03*
Y181000D02*
D03*
Y171000D02*
D03*
Y161000D02*
D03*
Y151000D02*
D03*
Y141000D02*
D03*
Y131000D02*
D03*
Y121000D02*
D03*
Y111000D02*
D03*
Y101000D02*
D03*
Y91000D02*
D03*
Y81000D02*
D03*
Y71000D02*
D03*
X275000Y201000D02*
D03*
Y191000D02*
D03*
Y181000D02*
D03*
Y171000D02*
D03*
Y161000D02*
D03*
Y151000D02*
D03*
Y141000D02*
D03*
Y131000D02*
D03*
Y121000D02*
D03*
Y111000D02*
D03*
Y101000D02*
D03*
Y91000D02*
D03*
Y81000D02*
D03*
Y71000D02*
D03*
X208500Y181000D02*
D03*
Y171000D02*
D03*
Y161000D02*
D03*
Y151000D02*
D03*
Y141000D02*
D03*
Y131000D02*
D03*
Y121000D02*
D03*
X366000Y201000D02*
D03*
X376000D02*
D03*
X366000Y191000D02*
D03*
X376000D02*
D03*
X366000Y181000D02*
D03*
X376000D02*
D03*
X366000Y171000D02*
D03*
X376000D02*
D03*
X366000Y161000D02*
D03*
X376000D02*
D03*
X366000Y151000D02*
D03*
X376000D02*
D03*
X366000Y141000D02*
D03*
X376000D02*
D03*
X366000Y131000D02*
D03*
X320000Y111000D02*
D03*
Y101000D02*
D03*
Y91000D02*
D03*
Y81000D02*
D03*
Y71000D02*
D03*
Y201000D02*
D03*
Y191000D02*
D03*
Y181000D02*
D03*
Y171000D02*
D03*
Y161000D02*
D03*
X366000Y91000D02*
D03*
X376000D02*
D03*
X366000Y81000D02*
D03*
X376000D02*
D03*
X366000Y71000D02*
D03*
X101500Y201500D02*
D03*
D48*
X208500Y191000D02*
D03*
X376000Y131000D02*
D03*
X320000Y61000D02*
D03*
Y151000D02*
D03*
X376000Y71000D02*
D03*
X101500Y191500D02*
D03*
D49*
X65811D02*
D03*
D50*
X42189D02*
D03*
D51*
X54000Y172996D02*
D03*
M02*
